G04*
G04 #@! TF.GenerationSoftware,Altium Limited,Altium Designer,23.1.1 (15)*
G04*
G04 Layer_Physical_Order=1*
G04 Layer_Color=255*
%FSLAX44Y44*%
%MOMM*%
G71*
G04*
G04 #@! TF.SameCoordinates,77F5CA13-7D53-4519-B7AC-21487DD3C2A2*
G04*
G04*
G04 #@! TF.FilePolarity,Positive*
G04*
G01*
G75*
%ADD12C,0.2540*%
%ADD14R,1.3533X1.8042*%
%ADD15R,0.9000X1.5500*%
%ADD16R,1.0000X1.6000*%
%ADD17R,0.9500X1.7000*%
G04:AMPARAMS|DCode=18|XSize=1.8741mm|YSize=0.5434mm|CornerRadius=0.2717mm|HoleSize=0mm|Usage=FLASHONLY|Rotation=0.000|XOffset=0mm|YOffset=0mm|HoleType=Round|Shape=RoundedRectangle|*
%AMROUNDEDRECTD18*
21,1,1.8741,0.0000,0,0,0.0*
21,1,1.3307,0.5434,0,0,0.0*
1,1,0.5434,0.6653,0.0000*
1,1,0.5434,-0.6653,0.0000*
1,1,0.5434,-0.6653,0.0000*
1,1,0.5434,0.6653,0.0000*
%
%ADD18ROUNDEDRECTD18*%
%ADD19R,1.8741X0.5434*%
%ADD22R,1.1500X1.1500*%
%ADD23C,1.1500*%
%ADD24C,1.5200*%
%ADD25R,1.5200X1.5200*%
%ADD26C,0.0000*%
D12*
X591823Y779780D02*
X610030Y761573D01*
Y739722D02*
Y761573D01*
X607798Y737490D02*
X610030Y739722D01*
X563142Y737490D02*
X607798D01*
X551332Y749300D02*
X563142Y737490D01*
X537720Y749300D02*
X551332D01*
X571989Y751569D02*
Y785953D01*
X578516Y792480D01*
X569720Y749300D02*
X571989Y751569D01*
X578516Y792480D02*
X585169D01*
X695783Y824407D02*
X709930Y810260D01*
X607255Y809528D02*
X622134Y824407D01*
X607255Y795212D02*
Y809528D01*
X622134Y824407D02*
X695783D01*
X591823Y779780D02*
X607255Y795212D01*
X585169Y792480D02*
X591823D01*
X569720Y749300D02*
X601220D01*
X631491Y817880D02*
X638144D01*
X644671Y811353D01*
Y777076D02*
Y811353D01*
X633220Y765625D02*
X644671Y777076D01*
X633220Y749300D02*
Y765625D01*
X676048Y741549D02*
X681544Y747046D01*
X633220Y746300D02*
Y749300D01*
X681544Y747046D02*
Y749300D01*
X670460Y741549D02*
X676048D01*
X665380Y736469D02*
X670460Y741549D01*
X643051Y736469D02*
X665380D01*
X633220Y746300D02*
X643051Y736469D01*
X657036Y749300D02*
Y751554D01*
X690341Y784860D02*
X709930D01*
X657036Y751554D02*
X690341Y784860D01*
X681544Y749300D02*
X699770D01*
X709930Y759460D01*
X434840Y749300D02*
X537720D01*
X391000Y793140D02*
X434840Y749300D01*
X591823Y817880D02*
X609603Y835660D01*
X709930D01*
X585169Y817880D02*
X591823D01*
X709930Y784860D02*
Y810260D01*
X519460Y817080D02*
X520260Y817880D01*
X518990Y816610D02*
X519460Y817080D01*
X520260Y817880D02*
X585169D01*
X525780Y788670D02*
X542290Y805180D01*
X517220Y788670D02*
X525780D01*
X542290Y805180D02*
X585169D01*
X519460Y817080D02*
Y842010D01*
X491490Y816610D02*
Y841980D01*
X491460Y842010D02*
X491490Y841980D01*
X499760Y809380D02*
X517220Y791920D01*
X494970Y809380D02*
X499760D01*
X491490Y812860D02*
Y816610D01*
X517220Y788670D02*
Y791920D01*
X491490Y812860D02*
X494970Y809380D01*
X465424Y788670D02*
Y814070D01*
Y788670D02*
X490720D01*
X440916D02*
Y814070D01*
X438986Y812140D02*
X440916Y814070D01*
X391000Y812140D02*
X438986D01*
D14*
X440916Y788670D02*
D03*
X465424D02*
D03*
X681544Y749300D02*
D03*
X657036D02*
D03*
X440916Y814070D02*
D03*
X465424D02*
D03*
D15*
X490720Y788670D02*
D03*
X517220D02*
D03*
D16*
X633220Y749300D02*
D03*
X601220D02*
D03*
X569720D02*
D03*
X537720D02*
D03*
D17*
X491490Y816610D02*
D03*
X518990D02*
D03*
X491460Y842010D02*
D03*
X519460D02*
D03*
D18*
X631491Y817880D02*
D03*
Y805180D02*
D03*
Y792480D02*
D03*
Y779780D02*
D03*
X585169D02*
D03*
Y792480D02*
D03*
Y805180D02*
D03*
D19*
Y817880D02*
D03*
D22*
X391000Y793140D02*
D03*
D23*
Y812140D02*
D03*
D24*
X709930Y835660D02*
D03*
Y810260D02*
D03*
Y784860D02*
D03*
D25*
Y759460D02*
D03*
D26*
X340360Y881380D02*
Y882650D01*
Y704850D02*
Y882650D01*
Y704850D02*
X781050D01*
X782320Y703580D01*
Y883920D01*
X342900D02*
X782320D01*
X340360Y881380D02*
X342900Y883920D01*
M02*
