G04*
G04 #@! TF.GenerationSoftware,Altium Limited,Altium Designer,23.1.1 (15)*
G04*
G04 Layer_Color=65535*
%FSLAX44Y44*%
%MOMM*%
G71*
G04*
G04 #@! TF.SameCoordinates,77F5CA13-7D53-4519-B7AC-21487DD3C2A2*
G04*
G04*
G04 #@! TF.FilePolarity,Positive*
G04*
G01*
G75*
%ADD10C,0.2500*%
%ADD11C,0.1500*%
%ADD12C,0.2540*%
%ADD13C,0.2000*%
D10*
X571049Y817880D02*
G03*
X571049Y817880I-1250J0D01*
G01*
X711180Y739510D02*
G03*
X711180Y739510I-1250J0D01*
G01*
D11*
X411500Y802640D02*
G03*
X411500Y802640I-30500J0D01*
G01*
D12*
X340360Y704850D02*
X784860D01*
X340360Y883920D02*
X784860D01*
Y704850D02*
Y883920D01*
X340360Y704850D02*
Y883920D01*
X728980Y763266D02*
X731519Y765805D01*
X736598D01*
X739137Y763266D01*
Y760727D01*
X736598Y758187D01*
X734058D01*
X736598D01*
X739137Y755648D01*
Y753109D01*
X736598Y750570D01*
X731519D01*
X728980Y753109D01*
X744215Y765805D02*
Y755648D01*
X749293Y750570D01*
X754372Y755648D01*
Y765805D01*
X759450Y763266D02*
X761989Y765805D01*
X767068D01*
X769607Y763266D01*
Y760727D01*
X767068Y758187D01*
X764529D01*
X767068D01*
X769607Y755648D01*
Y753109D01*
X767068Y750570D01*
X761989D01*
X759450Y753109D01*
X741677Y801366D02*
X739137Y803905D01*
X734059D01*
X731520Y801366D01*
Y791209D01*
X734059Y788670D01*
X739137D01*
X741677Y791209D01*
Y796288D01*
X736598D01*
X746755Y788670D02*
Y803905D01*
X756912Y788670D01*
Y803905D01*
X761990D02*
Y788670D01*
X769608D01*
X772147Y791209D01*
Y801366D01*
X769608Y803905D01*
X761990D01*
X739137Y845815D02*
X734059D01*
X731520Y843276D01*
Y833119D01*
X734059Y830580D01*
X739137D01*
X741677Y833119D01*
Y843276D01*
X739137Y845815D01*
X746755D02*
Y833119D01*
X749294Y830580D01*
X754373D01*
X756912Y833119D01*
Y845815D01*
X761990D02*
X772147D01*
X767068D01*
Y830580D01*
X351028Y858007D02*
Y845311D01*
X353567Y842772D01*
X358646D01*
X361185Y845311D01*
Y858007D01*
X376420Y842772D02*
X366263D01*
X376420Y852929D01*
Y855468D01*
X373881Y858007D01*
X368802D01*
X366263Y855468D01*
X569722Y848101D02*
Y835405D01*
X572261Y832866D01*
X577340D01*
X579879Y835405D01*
Y848101D01*
X584957Y832866D02*
X590035D01*
X587496D01*
Y848101D01*
X584957Y845562D01*
X529594Y808992D02*
Y824228D01*
X537212D01*
X539751Y821688D01*
Y816610D01*
X537212Y814071D01*
X529594D01*
X534673D02*
X539751Y808992D01*
X552447D02*
Y824228D01*
X544829Y816610D01*
X554986D01*
X604524Y720092D02*
Y735328D01*
X612142D01*
X614681Y732788D01*
Y727710D01*
X612142Y725171D01*
X604524D01*
X609603D02*
X614681Y720092D01*
X619759Y732788D02*
X622298Y735328D01*
X627377D01*
X629916Y732788D01*
Y730249D01*
X627377Y727710D01*
X624837D01*
X627377D01*
X629916Y725171D01*
Y722632D01*
X627377Y720092D01*
X622298D01*
X619759Y722632D01*
X533146Y767588D02*
Y782823D01*
X540764D01*
X543303Y780284D01*
Y775206D01*
X540764Y772666D01*
X533146D01*
X538224D02*
X543303Y767588D01*
X558538D02*
X548381D01*
X558538Y777745D01*
Y780284D01*
X555999Y782823D01*
X550920D01*
X548381Y780284D01*
X485143Y759463D02*
Y774697D01*
X492761D01*
X495300Y772158D01*
Y767080D01*
X492761Y764541D01*
X485143D01*
X490222D02*
X495300Y759463D01*
X500378D02*
X505457D01*
X502918D01*
Y774697D01*
X500378Y772158D01*
X707641Y874517D02*
X702562D01*
X705101D01*
Y861821D01*
X702562Y859282D01*
X700023D01*
X697484Y861821D01*
X712719Y859282D02*
X717797D01*
X715258D01*
Y874517D01*
X712719Y871978D01*
X497837D02*
X495298Y874517D01*
X490219D01*
X487680Y871978D01*
Y861821D01*
X490219Y859282D01*
X495298D01*
X497837Y861821D01*
X510533Y859282D02*
Y874517D01*
X502915Y866899D01*
X513072D01*
X444751Y845816D02*
X442211Y848355D01*
X437133D01*
X434594Y845816D01*
Y835659D01*
X437133Y833120D01*
X442211D01*
X444751Y835659D01*
X449829Y845816D02*
X452368Y848355D01*
X457447D01*
X459986Y845816D01*
Y843277D01*
X457447Y840738D01*
X454907D01*
X457447D01*
X459986Y838198D01*
Y835659D01*
X457447Y833120D01*
X452368D01*
X449829Y835659D01*
X450851Y770888D02*
X448312Y773428D01*
X443233D01*
X440694Y770888D01*
Y760732D01*
X443233Y758193D01*
X448312D01*
X450851Y760732D01*
X466086Y758193D02*
X455929D01*
X466086Y768349D01*
Y770888D01*
X463547Y773428D01*
X458468D01*
X455929Y770888D01*
X668020Y726438D02*
X665481Y728978D01*
X660403D01*
X657863Y726438D01*
Y716282D01*
X660403Y713743D01*
X665481D01*
X668020Y716282D01*
X673098Y713743D02*
X678177D01*
X675638D01*
Y728978D01*
X673098Y726438D01*
D13*
X450682Y779170D02*
X455658D01*
X450682Y798170D02*
X455658D01*
X498970Y795420D02*
X508970D01*
X498970Y781920D02*
X508970D01*
X609970Y740550D02*
X624470D01*
X609970Y758050D02*
X624470D01*
X666802Y758800D02*
X671778D01*
X666802Y739800D02*
X671778D01*
X500240Y824110D02*
X510240D01*
X500240Y809110D02*
X510240D01*
X499960Y849510D02*
X510960D01*
X499960Y834510D02*
X510960D01*
X546470Y740550D02*
X560970D01*
X546470Y758050D02*
X560970D01*
X599540Y774330D02*
Y823330D01*
Y774330D02*
X617120D01*
Y823330D01*
X599540D02*
X617120D01*
X450682Y804570D02*
X455658D01*
X450682Y823570D02*
X455658D01*
X393500Y767140D02*
Y771140D01*
X391500Y769140D02*
X395500D01*
X696830Y745510D02*
X723030D01*
Y849610D01*
X696830D02*
X723030D01*
X696830Y745510D02*
Y849610D01*
M02*
