G04*
G04 #@! TF.GenerationSoftware,Altium Limited,Altium Designer,23.1.1 (15)*
G04*
G04 Layer_Color=8388736*
%FSLAX44Y44*%
%MOMM*%
G71*
G04*
G04 #@! TF.SameCoordinates,A4D4DC3D-09BA-49FB-81B5-C576A0A79F62*
G04*
G04*
G04 #@! TF.FilePolarity,Negative*
G04*
G01*
G75*
%ADD20R,1.6800X1.7000*%
G04:AMPARAMS|DCode=21|XSize=1.3383mm|YSize=0.578mm|CornerRadius=0.289mm|HoleSize=0mm|Usage=FLASHONLY|Rotation=0.000|XOffset=0mm|YOffset=0mm|HoleType=Round|Shape=RoundedRectangle|*
%AMROUNDEDRECTD21*
21,1,1.3383,0.0000,0,0,0.0*
21,1,0.7603,0.5780,0,0,0.0*
1,1,0.5780,0.3802,0.0000*
1,1,0.5780,-0.3802,0.0000*
1,1,0.5780,-0.3802,0.0000*
1,1,0.5780,0.3802,0.0000*
%
%ADD21ROUNDEDRECTD21*%
%ADD22R,1.3383X0.5780*%
%ADD23R,0.7562X1.9062*%
%ADD24R,1.2557X1.7582*%
%ADD28R,1.1000X1.3500*%
%ADD29R,0.8000X0.6000*%
%ADD30R,1.0000X1.5000*%
%ADD31C,0.2700*%
%ADD32R,1.5000X1.0000*%
%ADD34R,1.3500X1.1000*%
%ADD35R,1.4000X2.1000*%
%ADD36R,1.8062X1.7540*%
%ADD37R,1.0043X0.8721*%
G04:AMPARAMS|DCode=38|XSize=1.0043mm|YSize=0.8721mm|CornerRadius=0.4361mm|HoleSize=0mm|Usage=FLASHONLY|Rotation=180.000|XOffset=0mm|YOffset=0mm|HoleType=Round|Shape=RoundedRectangle|*
%AMROUNDEDRECTD38*
21,1,1.0043,0.0000,0,0,180.0*
21,1,0.1322,0.8721,0,0,180.0*
1,1,0.8721,-0.0661,0.0000*
1,1,0.8721,0.0661,0.0000*
1,1,0.8721,0.0661,0.0000*
1,1,0.8721,-0.0661,0.0000*
%
%ADD38ROUNDEDRECTD38*%
G04:AMPARAMS|DCode=39|XSize=1.0043mm|YSize=3.1821mm|CornerRadius=0.4369mm|HoleSize=0mm|Usage=FLASHONLY|Rotation=180.000|XOffset=0mm|YOffset=0mm|HoleType=Round|Shape=RoundedRectangle|*
%AMROUNDEDRECTD39*
21,1,1.0043,2.3084,0,0,180.0*
21,1,0.1306,3.1821,0,0,180.0*
1,1,0.8737,-0.0653,1.1542*
1,1,0.8737,0.0653,1.1542*
1,1,0.8737,0.0653,-1.1542*
1,1,0.8737,-0.0653,-1.1542*
%
%ADD39ROUNDEDRECTD39*%
%ADD41R,0.3000X0.7000*%
%ADD42R,1.0000X0.7000*%
%ADD43R,1.5000X0.9000*%
%ADD44R,0.9000X1.5000*%
%ADD45R,0.9000X0.9000*%
%ADD46R,1.7032X1.6032*%
%ADD47R,1.1032X1.8032*%
%ADD48R,1.0532X1.8032*%
%ADD49R,3.3500X3.3500*%
%ADD50R,0.6000X0.5500*%
%ADD51R,0.5500X0.6000*%
%ADD52R,1.8532X1.3032*%
G04:AMPARAMS|DCode=53|XSize=1.8532mm|YSize=1.3032mm|CornerRadius=0mm|HoleSize=0mm|Usage=FLASHONLY|Rotation=225.000|XOffset=0mm|YOffset=0mm|HoleType=Round|Shape=Rectangle|*
%AMROTATEDRECTD53*
4,1,4,0.1945,1.1160,1.1160,0.1945,-0.1945,-1.1160,-1.1160,-0.1945,0.1945,1.1160,0.0*
%
%ADD53ROTATEDRECTD53*%

%ADD54C,1.5700*%
%ADD55R,1.5700X1.5700*%
%ADD56R,1.5200X1.5200*%
%ADD57C,1.5200*%
%ADD58C,1.1200*%
%ADD59R,1.1200X1.1200*%
%ADD60R,1.5200X1.5200*%
G04:AMPARAMS|DCode=61|XSize=1.1mm|YSize=2.1mm|CornerRadius=0.55mm|HoleSize=0mm|Usage=FLASHONLY|Rotation=0.000|XOffset=0mm|YOffset=0mm|HoleType=Round|Shape=RoundedRectangle|*
%AMROUNDEDRECTD61*
21,1,1.1000,1.0000,0,0,0.0*
21,1,0.0000,2.1000,0,0,0.0*
1,1,1.1000,0.0000,-0.5000*
1,1,1.1000,0.0000,-0.5000*
1,1,1.1000,0.0000,0.5000*
1,1,1.1000,0.0000,0.5000*
%
%ADD61ROUNDEDRECTD61*%
G04:AMPARAMS|DCode=62|XSize=1.1mm|YSize=2.6mm|CornerRadius=0.55mm|HoleSize=0mm|Usage=FLASHONLY|Rotation=0.000|XOffset=0mm|YOffset=0mm|HoleType=Round|Shape=RoundedRectangle|*
%AMROUNDEDRECTD62*
21,1,1.1000,1.5000,0,0,0.0*
21,1,0.0000,2.6000,0,0,0.0*
1,1,1.1000,0.0000,-0.7500*
1,1,1.1000,0.0000,-0.7500*
1,1,1.1000,0.0000,0.7500*
1,1,1.1000,0.0000,0.7500*
%
%ADD62ROUNDEDRECTD62*%
%ADD63C,1.4732*%
G36*
X768340Y483030D02*
Y482732D01*
X768112Y482180D01*
X767690Y481758D01*
X767138Y481530D01*
X766542D01*
X765990Y481758D01*
X765568Y482180D01*
X765340Y482732D01*
Y483030D01*
Y491030D01*
X768340D01*
Y483030D01*
D02*
G37*
G36*
X763340D02*
Y482732D01*
X763112Y482180D01*
X762690Y481758D01*
X762138Y481530D01*
X761542D01*
X760990Y481758D01*
X760568Y482180D01*
X760340Y482732D01*
Y483030D01*
Y491030D01*
X763340D01*
Y483030D01*
D02*
G37*
G36*
X758340D02*
Y482732D01*
X758112Y482180D01*
X757690Y481758D01*
X757138Y481530D01*
X756542D01*
X755990Y481758D01*
X755568Y482180D01*
X755340Y482732D01*
Y483030D01*
Y491030D01*
X758340D01*
X758340Y483030D01*
D02*
G37*
G36*
X753340D02*
Y482732D01*
X753112Y482180D01*
X752690Y481758D01*
X752138Y481530D01*
X751542D01*
X750990Y481758D01*
X750568Y482180D01*
X750340Y482732D01*
Y483030D01*
Y491030D01*
X753340D01*
Y483030D01*
D02*
G37*
G36*
X748340D02*
Y482732D01*
X748112Y482180D01*
X747690Y481758D01*
X747138Y481530D01*
X746542D01*
X745990Y481758D01*
X745568Y482180D01*
X745340Y482732D01*
Y483030D01*
X745340D01*
Y491030D01*
X748340D01*
Y483030D01*
D02*
G37*
G36*
X743340D02*
Y482732D01*
X743112Y482180D01*
X742690Y481758D01*
X742138Y481530D01*
X741542D01*
X740990Y481758D01*
X740568Y482180D01*
X740340Y482732D01*
Y483030D01*
Y491030D01*
X743340D01*
Y483030D01*
D02*
G37*
G36*
X738340D02*
Y482732D01*
X738112Y482180D01*
X737690Y481758D01*
X737138Y481530D01*
X736542D01*
X735990Y481758D01*
X735568Y482180D01*
X735340Y482732D01*
Y483030D01*
Y491030D01*
X738340D01*
Y483030D01*
D02*
G37*
G36*
X780590Y475780D02*
X772292D01*
X771740Y476008D01*
X771318Y476430D01*
X771090Y476982D01*
Y477280D01*
Y477578D01*
X771318Y478130D01*
X771740Y478552D01*
X772292Y478780D01*
X780590D01*
Y475780D01*
D02*
G37*
G36*
X731940Y478552D02*
X732362Y478130D01*
X732590Y477578D01*
Y477280D01*
Y476982D01*
X732362Y476430D01*
X731940Y476008D01*
X731388Y475780D01*
X723090D01*
Y478780D01*
X731388D01*
X731940Y478552D01*
D02*
G37*
G36*
X780590Y470780D02*
X772292D01*
X771740Y471008D01*
X771318Y471430D01*
X771090Y471982D01*
Y472280D01*
Y472578D01*
X771318Y473130D01*
X771740Y473552D01*
X772292Y473780D01*
X780590D01*
Y470780D01*
D02*
G37*
G36*
X731940Y473552D02*
X732362Y473130D01*
X732590Y472578D01*
Y472280D01*
Y471982D01*
X732362Y471430D01*
X731940Y471008D01*
X731388Y470780D01*
X723090D01*
Y473780D01*
X731388D01*
X731940Y473552D01*
D02*
G37*
G36*
X780590Y465780D02*
X772292D01*
X771740Y466008D01*
X771318Y466430D01*
X771090Y466982D01*
Y467280D01*
Y467578D01*
X771318Y468130D01*
X771740Y468552D01*
X772292Y468780D01*
X772590D01*
Y468780D01*
X780590D01*
Y465780D01*
D02*
G37*
G36*
X731090Y468780D02*
X731388D01*
X731940Y468552D01*
X732362Y468130D01*
X732590Y467578D01*
Y467280D01*
Y466982D01*
X732362Y466430D01*
X731940Y466008D01*
X731388Y465780D01*
X723090D01*
Y468780D01*
X731090Y468780D01*
D02*
G37*
G36*
X780590Y460780D02*
X772292D01*
X771740Y461008D01*
X771318Y461430D01*
X771090Y461982D01*
Y462280D01*
Y462578D01*
X771318Y463130D01*
X771740Y463552D01*
X772292Y463780D01*
X780590D01*
Y460780D01*
D02*
G37*
G36*
X731940Y463552D02*
X732362Y463130D01*
X732590Y462578D01*
Y462280D01*
Y461982D01*
X732362Y461430D01*
X731940Y461008D01*
X731388Y460780D01*
X723090D01*
Y463780D01*
X731388D01*
X731940Y463552D01*
D02*
G37*
G36*
X780590Y455780D02*
X772590Y455780D01*
X772292D01*
X771740Y456008D01*
X771318Y456430D01*
X771090Y456982D01*
Y457280D01*
Y457578D01*
X771318Y458130D01*
X771740Y458552D01*
X772292Y458780D01*
X780590D01*
Y455780D01*
D02*
G37*
G36*
X731940Y458552D02*
X732362Y458130D01*
X732590Y457578D01*
Y457280D01*
Y456982D01*
X732362Y456430D01*
X731940Y456008D01*
X731388Y455780D01*
X731090D01*
Y455780D01*
X723090D01*
Y458780D01*
X731388D01*
X731940Y458552D01*
D02*
G37*
G36*
X780590Y450780D02*
X772292D01*
X771740Y451008D01*
X771318Y451430D01*
X771090Y451982D01*
Y452280D01*
Y452578D01*
X771318Y453130D01*
X771740Y453552D01*
X772292Y453780D01*
X780590D01*
Y450780D01*
D02*
G37*
G36*
X731940Y453552D02*
X732362Y453130D01*
X732590Y452578D01*
Y452280D01*
Y451982D01*
X732362Y451430D01*
X731940Y451008D01*
X731388Y450780D01*
X723090D01*
Y453780D01*
X731388D01*
X731940Y453552D01*
D02*
G37*
G36*
X780590Y445780D02*
X772292D01*
X771740Y446008D01*
X771318Y446430D01*
X771090Y446982D01*
Y447280D01*
Y447578D01*
X771318Y448130D01*
X771740Y448552D01*
X772292Y448780D01*
X780590D01*
Y445780D01*
D02*
G37*
G36*
X731940Y448552D02*
X732362Y448130D01*
X732590Y447578D01*
Y447280D01*
Y446982D01*
X732362Y446430D01*
X731940Y446008D01*
X731388Y445780D01*
X723090D01*
Y448780D01*
X731388D01*
X731940Y448552D01*
D02*
G37*
G36*
X767690Y442802D02*
X768112Y442380D01*
X768340Y441828D01*
Y441530D01*
Y433530D01*
X765340D01*
Y441530D01*
Y441828D01*
X765568Y442380D01*
X765990Y442802D01*
X766542Y443030D01*
X767138D01*
X767690Y442802D01*
D02*
G37*
G36*
X762690D02*
X763112Y442380D01*
X763340Y441828D01*
Y441530D01*
Y433530D01*
X760340D01*
Y441530D01*
Y441828D01*
X760568Y442380D01*
X760990Y442802D01*
X761542Y443030D01*
X762138D01*
X762690Y442802D01*
D02*
G37*
G36*
X757690D02*
X758112Y442380D01*
X758340Y441828D01*
Y441530D01*
X758340D01*
Y433530D01*
X755340D01*
Y441530D01*
Y441828D01*
X755568Y442380D01*
X755990Y442802D01*
X756542Y443030D01*
X757138D01*
X757690Y442802D01*
D02*
G37*
G36*
X752690D02*
X753112Y442380D01*
X753340Y441828D01*
Y441530D01*
Y433530D01*
X750340D01*
Y441530D01*
Y441828D01*
X750568Y442380D01*
X750990Y442802D01*
X751542Y443030D01*
X752138D01*
X752690Y442802D01*
D02*
G37*
G36*
X747690D02*
X748112Y442380D01*
X748340Y441828D01*
Y441530D01*
Y433530D01*
X745340D01*
X745340Y441530D01*
Y441828D01*
X745568Y442380D01*
X745990Y442802D01*
X746542Y443030D01*
X747138D01*
X747690Y442802D01*
D02*
G37*
G36*
X742690D02*
X743112Y442380D01*
X743340Y441828D01*
Y441530D01*
Y433530D01*
X740340D01*
Y441530D01*
Y441828D01*
X740568Y442380D01*
X740990Y442802D01*
X741542Y443030D01*
X742138D01*
X742690Y442802D01*
D02*
G37*
G36*
X737690D02*
X738112Y442380D01*
X738340Y441828D01*
Y441530D01*
Y433530D01*
X735340D01*
Y441530D01*
Y441828D01*
X735568Y442380D01*
X735990Y442802D01*
X736542Y443030D01*
X737138D01*
X737690Y442802D01*
D02*
G37*
D20*
X811530Y337820D02*
D03*
Y302020D02*
D03*
D21*
X617220Y366980D02*
D03*
Y347980D02*
D03*
X594896D02*
D03*
Y357480D02*
D03*
D22*
Y366980D02*
D03*
D23*
X661140Y321310D02*
D03*
X626640D02*
D03*
X530120Y323850D02*
D03*
X564620D02*
D03*
X827300Y549910D02*
D03*
X861800D02*
D03*
D24*
X602022Y295910D02*
D03*
X573998D02*
D03*
D28*
X858510Y500380D02*
D03*
X825510D02*
D03*
X548640Y425440D02*
D03*
D29*
X655440Y495910D02*
D03*
Y476910D02*
D03*
X675640Y486410D02*
D03*
X660460Y542900D02*
D03*
Y523900D02*
D03*
X680660Y533400D02*
D03*
D30*
X597410Y492760D02*
D03*
X629410D02*
D03*
X961900Y287020D02*
D03*
X993900D02*
D03*
X897130D02*
D03*
X929130D02*
D03*
X391670Y496570D02*
D03*
X423670D02*
D03*
X344930Y497840D02*
D03*
X312930D02*
D03*
X599950Y528320D02*
D03*
X631950D02*
D03*
D31*
X727840Y477280D02*
D03*
Y472280D02*
D03*
Y467280D02*
D03*
X724590Y462280D02*
D03*
X727840Y457280D02*
D03*
Y452280D02*
D03*
Y447280D02*
D03*
X736840Y438280D02*
D03*
X741840D02*
D03*
X746840Y438125D02*
D03*
X751840D02*
D03*
X756840Y438280D02*
D03*
X761840D02*
D03*
X766840D02*
D03*
X775840Y447280D02*
D03*
Y452280D02*
D03*
Y457280D02*
D03*
X778590Y462280D02*
D03*
X775840Y467280D02*
D03*
Y472280D02*
D03*
Y477280D02*
D03*
X766840Y486280D02*
D03*
X761840D02*
D03*
X756840Y486435D02*
D03*
X751840D02*
D03*
X746840Y486280D02*
D03*
X741840D02*
D03*
X736840D02*
D03*
D32*
X751840Y385320D02*
D03*
Y417320D02*
D03*
D34*
X382270Y394980D02*
D03*
Y427980D02*
D03*
X492760Y767090D02*
D03*
Y800090D02*
D03*
X548640Y392440D02*
D03*
D35*
X304250Y368300D02*
D03*
Y468300D02*
D03*
X349250Y368300D02*
D03*
Y468300D02*
D03*
X467360Y364820D02*
D03*
Y464820D02*
D03*
X512360Y364820D02*
D03*
Y464820D02*
D03*
D36*
X928370Y588341D02*
D03*
Y564819D02*
D03*
X994410Y518160D02*
D03*
Y494637D02*
D03*
X449580Y771829D02*
D03*
Y795351D02*
D03*
D37*
X956240Y485100D02*
D03*
D38*
Y508000D02*
D03*
Y530900D02*
D03*
D39*
X890340Y508000D02*
D03*
D41*
X700250Y331070D02*
D03*
X705250D02*
D03*
X710250D02*
D03*
X715250D02*
D03*
X720250D02*
D03*
X725250D02*
D03*
X735250D02*
D03*
X740250D02*
D03*
X745250D02*
D03*
X750250D02*
D03*
X755250D02*
D03*
X760250D02*
D03*
X752750Y318070D02*
D03*
X747750D02*
D03*
X742750D02*
D03*
X737750D02*
D03*
X732750D02*
D03*
X727750D02*
D03*
X722750D02*
D03*
X717750D02*
D03*
X712750D02*
D03*
X707750D02*
D03*
D42*
X699250D02*
D03*
X761250D02*
D03*
D43*
X600630Y802400D02*
D03*
Y789700D02*
D03*
Y777000D02*
D03*
Y764300D02*
D03*
Y751600D02*
D03*
Y738900D02*
D03*
Y726200D02*
D03*
Y713500D02*
D03*
Y700800D02*
D03*
Y688100D02*
D03*
Y675400D02*
D03*
Y662700D02*
D03*
Y650000D02*
D03*
Y637300D02*
D03*
X775630D02*
D03*
Y650000D02*
D03*
Y662700D02*
D03*
Y675400D02*
D03*
Y688100D02*
D03*
Y700800D02*
D03*
Y713500D02*
D03*
Y726200D02*
D03*
Y738900D02*
D03*
Y751600D02*
D03*
Y764300D02*
D03*
Y777000D02*
D03*
Y789700D02*
D03*
Y802400D02*
D03*
D44*
X631030Y624800D02*
D03*
X643730D02*
D03*
X656430D02*
D03*
X669130D02*
D03*
X681830D02*
D03*
X694530D02*
D03*
X707230D02*
D03*
X719930D02*
D03*
X732630D02*
D03*
X745330D02*
D03*
D45*
X659130Y739200D02*
D03*
X673130D02*
D03*
X687130D02*
D03*
X659130Y725200D02*
D03*
X673130D02*
D03*
X687130D02*
D03*
X659130Y711200D02*
D03*
X673130D02*
D03*
X687130D02*
D03*
D46*
X539750Y266940D02*
D03*
Y296940D02*
D03*
X930910Y416800D02*
D03*
Y446800D02*
D03*
D47*
X666280Y384810D02*
D03*
X639280D02*
D03*
D48*
X859070Y450850D02*
D03*
X832570D02*
D03*
D49*
X751840Y462280D02*
D03*
D50*
X709780Y380640D02*
D03*
X722780D02*
D03*
X716280Y399140D02*
D03*
D51*
X719730Y363370D02*
D03*
Y350370D02*
D03*
X738230Y356870D02*
D03*
D52*
X744220Y534950D02*
D03*
Y506450D02*
D03*
X717550Y505180D02*
D03*
Y533680D02*
D03*
X891540Y422630D02*
D03*
Y451130D02*
D03*
D53*
X784860Y406400D02*
D03*
X805013Y386247D02*
D03*
D54*
X476250Y317500D02*
D03*
X458470Y566420D02*
D03*
X845820Y358140D02*
D03*
D55*
X476250Y292100D02*
D03*
X458470Y541020D02*
D03*
X845820Y332740D02*
D03*
D56*
X1026160Y365760D02*
D03*
X977900Y364490D02*
D03*
X800100Y455930D02*
D03*
D57*
X1026160Y391160D02*
D03*
Y416560D02*
D03*
Y441960D02*
D03*
X977900Y440690D02*
D03*
Y415290D02*
D03*
Y389890D02*
D03*
X800100Y532130D02*
D03*
Y506730D02*
D03*
Y481330D02*
D03*
X897890Y750570D02*
D03*
X872490D02*
D03*
X847090D02*
D03*
D58*
X982980Y561340D02*
D03*
Y574040D02*
D03*
Y586740D02*
D03*
Y599440D02*
D03*
Y612140D02*
D03*
Y624840D02*
D03*
Y637540D02*
D03*
Y650240D02*
D03*
Y662940D02*
D03*
Y675640D02*
D03*
Y688340D02*
D03*
Y701040D02*
D03*
Y713740D02*
D03*
Y726440D02*
D03*
Y739140D02*
D03*
Y751840D02*
D03*
Y764540D02*
D03*
Y777240D02*
D03*
Y789940D02*
D03*
X392430Y792480D02*
D03*
Y779780D02*
D03*
Y767080D02*
D03*
Y754380D02*
D03*
Y741680D02*
D03*
Y728980D02*
D03*
Y716280D02*
D03*
Y703580D02*
D03*
Y690880D02*
D03*
Y678180D02*
D03*
Y665480D02*
D03*
Y652780D02*
D03*
Y640080D02*
D03*
Y627380D02*
D03*
Y614680D02*
D03*
Y601980D02*
D03*
Y589280D02*
D03*
Y576580D02*
D03*
Y563880D02*
D03*
D59*
X982980Y802640D02*
D03*
X392430Y805180D02*
D03*
D60*
X923290Y750570D02*
D03*
D61*
X687050Y326970D02*
D03*
X773450D02*
D03*
D62*
X687050Y273370D02*
D03*
X773450D02*
D03*
D63*
X589288Y323850D02*
D03*
X792480Y359410D02*
D03*
X699770Y493190D02*
D03*
X807521Y754579D02*
D03*
X753110Y586740D02*
D03*
X791210Y590550D02*
D03*
X685800Y370840D02*
D03*
X702310Y358140D02*
D03*
X768350Y508000D02*
D03*
X694690Y579120D02*
D03*
X633730Y603250D02*
D03*
X890270Y468630D02*
D03*
X708660Y598170D02*
D03*
X899160Y332740D02*
D03*
X506730Y491490D02*
D03*
X534670Y510540D02*
D03*
X754380Y350520D02*
D03*
X567690Y762000D02*
D03*
M02*
