G04*
G04 #@! TF.GenerationSoftware,Altium Limited,Altium Designer,23.1.1 (15)*
G04*
G04 Layer_Color=16711935*
%FSLAX44Y44*%
%MOMM*%
G71*
G04*
G04 #@! TF.SameCoordinates,A4D4DC3D-09BA-49FB-81B5-C576A0A79F62*
G04*
G04*
G04 #@! TF.FilePolarity,Negative*
G04*
G01*
G75*
%ADD54C,1.5700*%
%ADD55R,1.5700X1.5700*%
%ADD56R,1.5200X1.5200*%
%ADD57C,1.5200*%
%ADD58C,1.1200*%
%ADD59R,1.1200X1.1200*%
%ADD60R,1.5200X1.5200*%
G04:AMPARAMS|DCode=61|XSize=1.1mm|YSize=2.1mm|CornerRadius=0.55mm|HoleSize=0mm|Usage=FLASHONLY|Rotation=0.000|XOffset=0mm|YOffset=0mm|HoleType=Round|Shape=RoundedRectangle|*
%AMROUNDEDRECTD61*
21,1,1.1000,1.0000,0,0,0.0*
21,1,0.0000,2.1000,0,0,0.0*
1,1,1.1000,0.0000,-0.5000*
1,1,1.1000,0.0000,-0.5000*
1,1,1.1000,0.0000,0.5000*
1,1,1.1000,0.0000,0.5000*
%
%ADD61ROUNDEDRECTD61*%
G04:AMPARAMS|DCode=62|XSize=1.1mm|YSize=2.6mm|CornerRadius=0.55mm|HoleSize=0mm|Usage=FLASHONLY|Rotation=0.000|XOffset=0mm|YOffset=0mm|HoleType=Round|Shape=RoundedRectangle|*
%AMROUNDEDRECTD62*
21,1,1.1000,1.5000,0,0,0.0*
21,1,0.0000,2.6000,0,0,0.0*
1,1,1.1000,0.0000,-0.7500*
1,1,1.1000,0.0000,-0.7500*
1,1,1.1000,0.0000,0.7500*
1,1,1.1000,0.0000,0.7500*
%
%ADD62ROUNDEDRECTD62*%
%ADD63C,1.4732*%
D54*
X476250Y317500D02*
D03*
X458470Y566420D02*
D03*
X845820Y358140D02*
D03*
D55*
X476250Y292100D02*
D03*
X458470Y541020D02*
D03*
X845820Y332740D02*
D03*
D56*
X1026160Y365760D02*
D03*
X977900Y364490D02*
D03*
X800100Y455930D02*
D03*
D57*
X1026160Y391160D02*
D03*
Y416560D02*
D03*
Y441960D02*
D03*
X977900Y440690D02*
D03*
Y415290D02*
D03*
Y389890D02*
D03*
X800100Y532130D02*
D03*
Y506730D02*
D03*
Y481330D02*
D03*
X897890Y750570D02*
D03*
X872490D02*
D03*
X847090D02*
D03*
D58*
X982980Y561340D02*
D03*
Y574040D02*
D03*
Y586740D02*
D03*
Y599440D02*
D03*
Y612140D02*
D03*
Y624840D02*
D03*
Y637540D02*
D03*
Y650240D02*
D03*
Y662940D02*
D03*
Y675640D02*
D03*
Y688340D02*
D03*
Y701040D02*
D03*
Y713740D02*
D03*
Y726440D02*
D03*
Y739140D02*
D03*
Y751840D02*
D03*
Y764540D02*
D03*
Y777240D02*
D03*
Y789940D02*
D03*
X392430Y792480D02*
D03*
Y779780D02*
D03*
Y767080D02*
D03*
Y754380D02*
D03*
Y741680D02*
D03*
Y728980D02*
D03*
Y716280D02*
D03*
Y703580D02*
D03*
Y690880D02*
D03*
Y678180D02*
D03*
Y665480D02*
D03*
Y652780D02*
D03*
Y640080D02*
D03*
Y627380D02*
D03*
Y614680D02*
D03*
Y601980D02*
D03*
Y589280D02*
D03*
Y576580D02*
D03*
Y563880D02*
D03*
D59*
X982980Y802640D02*
D03*
X392430Y805180D02*
D03*
D60*
X923290Y750570D02*
D03*
D61*
X687050Y326970D02*
D03*
X773450D02*
D03*
D62*
X687050Y273370D02*
D03*
X773450D02*
D03*
D63*
X589288Y323850D02*
D03*
X792480Y359410D02*
D03*
X699770Y493190D02*
D03*
X807521Y754579D02*
D03*
X753110Y586740D02*
D03*
X791210Y590550D02*
D03*
X685800Y370840D02*
D03*
X702310Y358140D02*
D03*
X768350Y508000D02*
D03*
X694690Y579120D02*
D03*
X633730Y603250D02*
D03*
X890270Y468630D02*
D03*
X708660Y598170D02*
D03*
X899160Y332740D02*
D03*
X506730Y491490D02*
D03*
X534670Y510540D02*
D03*
X754380Y350520D02*
D03*
X567690Y762000D02*
D03*
M02*
