M48
;Layer_Color=9474304
;FILE_FORMAT=2:5
INCH,LZ
;TYPE=PLATED
T2F00S00C0.02800
T3F00S00C0.03346
T4F00S00C0.04016
%
T02
X0232003Y01275
X027Y0146
X02765Y0141
X0297Y0138
X0312Y01415
X0354Y0131
X03505Y01845
X0317922Y0297078
X03115Y02325
X02965Y0231
X0279Y02355
X02735Y0228
X02495Y02375
X02755Y0194169
X03025Y02
X02105Y0201
X01995Y01935
X02235Y03
T03
X0387Y0221
Y0226
Y0231
Y0236
Y0241
Y0246
Y0251
Y0256
Y0261
Y0266
Y0271
Y0276
Y0281
Y0286
Y0291
Y0296
Y0301
Y0306
Y0311
X01545Y0312
Y0307
Y0302
Y0297
Y0292
Y0287
Y0282
Y0277
Y0272
Y0267
Y0262
Y0257
Y0252
Y0247
Y0242
Y0237
Y0232
Y0227
Y0222
Y0317
X0387Y0316
T04
X01875Y0115
Y0125
X0333Y0131
Y0141
X0385Y01435
Y01535
X0404Y0154
Y0144
Y0164
Y0174
X0385Y01735
Y01635
X0315Y01795
Y01895
Y01995
Y02095
X03335Y02955
X03435
X03535
X03635
X01805Y0223
Y0213
M30
