G04*
G04 #@! TF.GenerationSoftware,Altium Limited,Altium Designer,23.1.1 (15)*
G04*
G04 Layer_Physical_Order=2*
G04 Layer_Color=16711680*
%FSLAX44Y44*%
%MOMM*%
G71*
G04*
G04 #@! TF.SameCoordinates,DF347086-9161-46D8-984A-1B3E043AF996*
G04*
G04*
G04 #@! TF.FilePolarity,Positive*
G04*
G01*
G75*
%ADD12C,0.2540*%
%ADD54C,1.5700*%
%ADD55R,1.5700X1.5700*%
%ADD56R,1.5200X1.5200*%
%ADD57C,1.5200*%
%ADD58C,1.1200*%
%ADD59R,1.1200X1.1200*%
%ADD60R,1.5200X1.5200*%
G04:AMPARAMS|DCode=61|XSize=1.1mm|YSize=2.1mm|CornerRadius=0.55mm|HoleSize=0mm|Usage=FLASHONLY|Rotation=0.000|XOffset=0mm|YOffset=0mm|HoleType=Round|Shape=RoundedRectangle|*
%AMROUNDEDRECTD61*
21,1,1.1000,1.0000,0,0,0.0*
21,1,0.0000,2.1000,0,0,0.0*
1,1,1.1000,0.0000,-0.5000*
1,1,1.1000,0.0000,-0.5000*
1,1,1.1000,0.0000,0.5000*
1,1,1.1000,0.0000,0.5000*
%
%ADD61ROUNDEDRECTD61*%
G04:AMPARAMS|DCode=62|XSize=1.1mm|YSize=2.6mm|CornerRadius=0.55mm|HoleSize=0mm|Usage=FLASHONLY|Rotation=0.000|XOffset=0mm|YOffset=0mm|HoleType=Round|Shape=RoundedRectangle|*
%AMROUNDEDRECTD62*
21,1,1.1000,1.5000,0,0,0.0*
21,1,0.0000,2.6000,0,0,0.0*
1,1,1.1000,0.0000,-0.7500*
1,1,1.1000,0.0000,-0.7500*
1,1,1.1000,0.0000,0.7500*
1,1,1.1000,0.0000,0.7500*
%
%ADD62ROUNDEDRECTD62*%
%ADD65C,1.2700*%
D12*
X583920Y448266D02*
X683733Y348453D01*
X788690Y502004D02*
Y520720D01*
Y502004D02*
X797954Y492740D01*
X804826D01*
X788690Y520720D02*
X800100Y532130D01*
X683733Y348453D02*
X696906Y335280D01*
X651510Y347980D02*
X683260D01*
X683733Y348453D01*
X627380Y323850D02*
X651510Y347980D01*
X589288Y323850D02*
X627380D01*
X708878Y360680D02*
X791210D01*
X792480Y359410D01*
X708282Y360084D02*
X708878Y360680D01*
X806848Y347980D02*
X817008Y358140D01*
X759669Y347980D02*
X806848D01*
X754380Y350520D02*
X757129D01*
X759669Y347980D01*
X753508Y335280D02*
X759508Y341280D01*
X793265D01*
X811977Y322568D01*
X696906Y335280D02*
X753508D01*
X745490Y341630D02*
X754380Y350520D01*
X685800Y353571D02*
X697740Y341630D01*
X745490D01*
X1003300Y403860D02*
Y757528D01*
Y359410D02*
Y403860D01*
X1014750Y392410D02*
X1024910D01*
X1003300Y403860D02*
X1014750Y392410D01*
X1024910D02*
X1026160Y391160D01*
X996970Y353080D02*
X1003300Y359410D01*
X968722Y353080D02*
X996970D01*
X966490Y355312D02*
X968722Y353080D01*
X966490Y355312D02*
Y378480D01*
X977900Y389890D01*
Y359410D02*
X992390Y373900D01*
X705666Y504048D02*
X709618Y508000D01*
X705666Y501662D02*
Y504048D01*
X699770Y495766D02*
X705666Y501662D01*
X699770Y493190D02*
Y495766D01*
X709618Y508000D02*
X768350D01*
X890270Y341630D02*
X899160Y332740D01*
X890270Y341630D02*
Y468630D01*
X899160Y330200D02*
Y332740D01*
X872490Y750570D02*
X888980Y767060D01*
X956158Y727254D02*
X982372Y701040D01*
X982980D01*
X956158Y727254D02*
Y738290D01*
X932468Y761980D02*
X956158Y738290D01*
X909300Y761980D02*
X932468D01*
X897890Y750570D02*
X909300Y761980D01*
X973570Y722542D02*
Y728062D01*
X888980Y767060D02*
X934572D01*
X875844Y772140D02*
X974772D01*
X858626Y754922D02*
X875844Y772140D01*
X982372Y764540D02*
X982980D01*
X974772Y772140D02*
X982372Y764540D01*
X934572Y767060D02*
X973570Y728062D01*
Y722542D02*
X982372Y713740D01*
X929470Y741242D02*
Y744390D01*
X923290Y750570D02*
X929470Y744390D01*
Y741242D02*
X982372Y688340D01*
X982980D01*
X982372Y713740D02*
X982980D01*
X847090Y750570D02*
X886460Y789940D01*
X858626Y748736D02*
Y754922D01*
X886460Y789940D02*
X982980D01*
X793750Y671830D02*
X858626Y736706D01*
Y748736D01*
X793750Y597118D02*
Y671830D01*
X807521Y754579D02*
Y754579D01*
X753110Y700168D02*
X807521Y754579D01*
X791210Y590550D02*
X793154Y592494D01*
Y596522D01*
X793750Y597118D01*
X753110Y586740D02*
Y700168D01*
X921412Y576580D02*
X982372Y637540D01*
X967132Y571500D02*
X982372Y586740D01*
X694690Y579120D02*
X707390Y566420D01*
X974752D02*
X982372Y574040D01*
X629522Y613410D02*
X712072D01*
X748902Y576580D01*
X707390Y566420D02*
X974752D01*
X708660Y598170D02*
X735330Y571500D01*
X967132D01*
X748902Y576580D02*
X921412D01*
X982372Y637540D02*
X982980D01*
X576580Y459740D02*
X631786Y514946D01*
Y601306D01*
X633730Y603250D01*
X534670Y510540D02*
X567690Y543560D01*
X983588Y777240D02*
X1003300Y757528D01*
X982980Y777240D02*
X983588D01*
X982980Y739140D02*
X983588D01*
X992390Y730338D01*
Y373900D02*
Y730338D01*
X804826Y492740D02*
X845820Y451746D01*
Y358140D02*
Y451746D01*
Y332740D02*
X857480Y344400D01*
X800100Y506730D02*
X857480Y449350D01*
Y344400D02*
Y449350D01*
X506730Y491490D02*
X529988D01*
X584200Y545702D01*
Y568088D02*
X629522Y613410D01*
X584200Y545702D02*
Y568088D01*
X982372Y574040D02*
X982980D01*
X567690Y543560D02*
Y762000D01*
X685800Y353571D02*
Y370840D01*
X500380Y459740D02*
X576580D01*
X397897Y562223D02*
X500380Y459740D01*
X394087Y562223D02*
X397897D01*
X392430Y563880D02*
X394087Y562223D01*
X383020Y567778D02*
X391822Y576580D01*
X383020Y559982D02*
Y567778D01*
Y559982D02*
X494736Y448266D01*
X391822Y576580D02*
X392430D01*
X811977Y322568D02*
X835648D01*
X494736Y448266D02*
X583920D01*
X835648Y322568D02*
X845820Y332740D01*
X817008Y358140D02*
X845820D01*
X982372Y586740D02*
X982980D01*
X702310Y358140D02*
X704254Y360084D01*
X708282D01*
D54*
X476250Y317500D02*
D03*
X458470Y566420D02*
D03*
X845820Y358140D02*
D03*
D55*
X476250Y292100D02*
D03*
X458470Y541020D02*
D03*
X845820Y332740D02*
D03*
D56*
X1026160Y365760D02*
D03*
X977900Y364490D02*
D03*
X800100Y455930D02*
D03*
D57*
X1026160Y391160D02*
D03*
Y416560D02*
D03*
Y441960D02*
D03*
X977900Y440690D02*
D03*
Y415290D02*
D03*
Y389890D02*
D03*
X800100Y532130D02*
D03*
Y506730D02*
D03*
Y481330D02*
D03*
X897890Y750570D02*
D03*
X872490D02*
D03*
X847090D02*
D03*
D58*
X982980Y561340D02*
D03*
Y574040D02*
D03*
Y586740D02*
D03*
Y599440D02*
D03*
Y612140D02*
D03*
Y624840D02*
D03*
Y637540D02*
D03*
Y650240D02*
D03*
Y662940D02*
D03*
Y675640D02*
D03*
Y688340D02*
D03*
Y701040D02*
D03*
Y713740D02*
D03*
Y726440D02*
D03*
Y739140D02*
D03*
Y751840D02*
D03*
Y764540D02*
D03*
Y777240D02*
D03*
Y789940D02*
D03*
X392430Y792480D02*
D03*
Y779780D02*
D03*
Y767080D02*
D03*
Y754380D02*
D03*
Y741680D02*
D03*
Y728980D02*
D03*
Y716280D02*
D03*
Y703580D02*
D03*
Y690880D02*
D03*
Y678180D02*
D03*
Y665480D02*
D03*
Y652780D02*
D03*
Y640080D02*
D03*
Y627380D02*
D03*
Y614680D02*
D03*
Y601980D02*
D03*
Y589280D02*
D03*
Y576580D02*
D03*
Y563880D02*
D03*
D59*
X982980Y802640D02*
D03*
X392430Y805180D02*
D03*
D60*
X923290Y750570D02*
D03*
D61*
X687050Y326970D02*
D03*
X773450D02*
D03*
D62*
X687050Y273370D02*
D03*
X773450D02*
D03*
D65*
X589288Y323850D02*
D03*
X792480Y359410D02*
D03*
X699770Y493190D02*
D03*
X807521Y754579D02*
D03*
X753110Y586740D02*
D03*
X791210Y590550D02*
D03*
X685800Y370840D02*
D03*
X702310Y358140D02*
D03*
X768350Y508000D02*
D03*
X694690Y579120D02*
D03*
X633730Y603250D02*
D03*
X890270Y468630D02*
D03*
X708660Y598170D02*
D03*
X899160Y332740D02*
D03*
X506730Y491490D02*
D03*
X534670Y510540D02*
D03*
X754380Y350520D02*
D03*
X567690Y762000D02*
D03*
M02*
